<svg width="34" height="27" viewBox="0 0 34 27" fill="none" xmlns="http://www.w3.org/2000/svg">
<path id="Vector" d="M8.96747 20.5099C8.91223 20.5689 8.84594 20.6164 8.77236 20.6497C8.69878 20.683 8.61937 20.7015 8.53866 20.7041C8.45794 20.7067 8.3775 20.6934 8.30193 20.6649C8.22637 20.6364 8.15715 20.5932 8.09824 20.5379L0.711447 13.6055C0.650098 13.5479 0.601197 13.4784 0.567768 13.4011C0.534338 13.3239 0.51709 13.2406 0.51709 13.1564C0.51709 13.0722 0.534338 12.9889 0.567768 12.9117C0.601197 12.8345 0.650098 12.7649 0.711447 12.7073L8.09824 5.77489C8.15715 5.7196 8.22637 5.67646 8.30193 5.64794C8.3775 5.61943 8.45794 5.60609 8.53866 5.6087C8.61937 5.6113 8.69878 5.62979 8.77236 5.66312C8.84594 5.69645 8.91223 5.74396 8.96747 5.80293L11.1971 8.18378C11.2534 8.24394 11.2971 8.31483 11.3256 8.39222C11.354 8.46962 11.3666 8.55195 11.3627 8.63433C11.3587 8.7167 11.3383 8.79744 11.3026 8.87175C11.2668 8.94607 11.2166 9.01243 11.1547 9.06692L6.51272 13.1565L11.1547 17.246C11.2166 17.3005 11.2668 17.3669 11.3026 17.4412C11.3383 17.5155 11.3587 17.5962 11.3627 17.6786C11.3666 17.761 11.354 17.8433 11.3256 17.9207C11.2971 17.9981 11.2534 18.069 11.1971 18.1292L8.96747 20.5099ZM14.8088 26.2644L11.6825 25.3558C11.5259 25.3103 11.3938 25.2043 11.3152 25.0613C11.2366 24.9182 11.2179 24.7498 11.2634 24.5929L18.26 0.46807C18.3055 0.311285 18.4114 0.17901 18.5543 0.100321C18.6972 0.0216322 18.8654 0.00297367 19.0221 0.0484463L22.1482 0.957008C22.2258 0.97955 22.2982 1.01716 22.3612 1.0677C22.4242 1.11824 22.4767 1.18071 22.5156 1.25155C22.5545 1.32239 22.5791 1.40021 22.588 1.48057C22.5969 1.56093 22.5898 1.64224 22.5673 1.71988L15.5707 25.8448C15.5482 25.9224 15.5107 25.9949 15.4602 26.058C15.4098 26.1211 15.3474 26.1736 15.2766 26.2126C15.2059 26.2516 15.1281 26.2762 15.0479 26.2851C14.9676 26.294 14.8864 26.2869 14.8088 26.2644ZM33.1195 13.6055L25.7327 20.5379C25.6738 20.5932 25.6045 20.6364 25.529 20.6649C25.4534 20.6934 25.373 20.7067 25.2922 20.7041C25.2115 20.7015 25.1321 20.683 25.0585 20.6497C24.985 20.6164 24.9187 20.5689 24.8634 20.5099L22.6337 18.1291C22.5774 18.0689 22.5337 17.998 22.5052 17.9206C22.4768 17.8432 22.4641 17.7609 22.4681 17.6785C22.4721 17.5961 22.4925 17.5154 22.5282 17.4411C22.5639 17.3668 22.6142 17.3004 22.6761 17.2459L27.3182 13.1565L22.6762 9.06692C22.6143 9.01243 22.5641 8.94607 22.5283 8.87175C22.4926 8.79744 22.4722 8.7167 22.4682 8.63433C22.4643 8.55195 22.4769 8.46962 22.5053 8.39222C22.5338 8.31483 22.5775 8.24394 22.6338 8.18378L24.8636 5.80293C24.9188 5.74396 24.9851 5.69645 25.0587 5.66312C25.1322 5.62979 25.2116 5.6113 25.2924 5.6087C25.3731 5.60609 25.4535 5.61943 25.5291 5.64794C25.6046 5.67646 25.6739 5.7196 25.7328 5.77489L33.1196 12.7073C33.1809 12.7649 33.2298 12.8345 33.2632 12.9117C33.2966 12.989 33.3139 13.0723 33.3139 13.1564C33.3139 13.2406 33.2966 13.3239 33.2632 13.4011C33.2297 13.4784 33.1808 13.5479 33.1195 13.6055Z" fill="white"/>
</svg>
